<?xml version="1.0" encoding="UTF-8" standalone="no"?>
<!DOCTYPE svg PUBLIC "-//W3C//DTD SVG 1.1//EN"
 "http://www.w3.org/Graphics/SVG/1.1/DTD/svg11.dtd">
<!-- Generated by graphviz version 2.42.3 ()
 -->
<!-- Title: perl6&#45;type&#45;graph Pages: 1 -->
<svg width="4016pt" height="116pt"
 viewBox="0.00 0.00 4016.32 116.00" xmlns="http://www.w3.org/2000/svg" xmlns:xlink="http://www.w3.org/1999/xlink">
<g id="graph0" class="graph" transform="scale(1 1) rotate(0) translate(4 112)">
<title>perl6&#45;type&#45;graph</title>
<polygon fill="white" stroke="transparent" points="-4,4 -4,-112 4012.32,-112 4012.32,4 -4,4"/>
<!-- Documentable::DocPage -->
<g id="node1" class="node">
<title>Documentable::DocPage</title>
<g id="a_node1"><a xlink:href="/type/Documentable::DocPage" xlink:title="Documentable::DocPage">
<ellipse fill="none" stroke="#6666ff" cx="2031.04" cy="-90" rx="113.18" ry="18"/>
<text text-anchor="middle" x="2031.04" y="-86.3" font-family="FreeSans" font-size="14.00" fill="#6666ff">Documentable::DocPage</text>
</a>
</g>
</g>
<!-- Documentable::DocPage::Secondary -->
<g id="node2" class="node">
<title>Documentable::DocPage::Secondary</title>
<g id="a_node2"><a xlink:href="/type/Documentable::DocPage::Secondary" xlink:title="Documentable::DocPage::Secondary">
<ellipse fill="none" stroke="#000000" cx="167.04" cy="-18" rx="167.07" ry="18"/>
<text text-anchor="middle" x="167.04" y="-14.3" font-family="FreeSans" font-size="14.00" fill="#000000">Documentable::DocPage::Secondary</text>
</a>
</g>
</g>
<!-- Documentable::DocPage::Secondary&#45;&gt;Documentable::DocPage -->
<g id="edge1" class="edge">
<title>Documentable::DocPage::Secondary&#45;&gt;Documentable::DocPage</title>
<path fill="none" stroke="#000000" d="M286.86,-30.57C318.03,-33.58 343.04,-36 343.04,-36 343.04,-36 1525.77,-73.14 1911.19,-85.24"/>
<polygon fill="#000000" stroke="#000000" points="1911.15,-88.74 1921.26,-85.55 1911.37,-81.74 1911.15,-88.74"/>
</g>
<!-- Documentable::DocPage::Primary::Language -->
<g id="node3" class="node">
<title>Documentable::DocPage::Primary::Language</title>
<g id="a_node3"><a xlink:href="/type/Documentable::DocPage::Primary::Language" xlink:title="Documentable::DocPage::Primary::Language">
<ellipse fill="none" stroke="#000000" cx="558.04" cy="-18" rx="206.06" ry="18"/>
<text text-anchor="middle" x="558.04" y="-14.3" font-family="FreeSans" font-size="14.00" fill="#000000">Documentable::DocPage::Primary::Language</text>
</a>
</g>
</g>
<!-- Documentable::DocPage::Primary::Language&#45;&gt;Documentable::DocPage -->
<g id="edge2" class="edge">
<title>Documentable::DocPage::Primary::Language&#45;&gt;Documentable::DocPage</title>
<path fill="none" stroke="#000000" d="M705.01,-30.62C742.8,-33.61 773.04,-36 773.04,-36 773.04,-36 1600.48,-70.86 1913.23,-84.04"/>
<polygon fill="#000000" stroke="#000000" points="1913.1,-87.53 1923.23,-84.46 1913.39,-80.54 1913.1,-87.53"/>
</g>
<!-- Documentable::DocPage::SubIndex::Routine -->
<g id="node4" class="node">
<title>Documentable::DocPage::SubIndex::Routine</title>
<g id="a_node4"><a xlink:href="/type/Documentable::DocPage::SubIndex::Routine" xlink:title="Documentable::DocPage::SubIndex::Routine">
<ellipse fill="none" stroke="#000000" cx="988.04" cy="-18" rx="206.06" ry="18"/>
<text text-anchor="middle" x="988.04" y="-14.3" font-family="FreeSans" font-size="14.00" fill="#000000">Documentable::DocPage::SubIndex::Routine</text>
</a>
</g>
</g>
<!-- Documentable::DocPage::SubIndex::Routine&#45;&gt;Documentable::DocPage -->
<g id="edge3" class="edge">
<title>Documentable::DocPage::SubIndex::Routine&#45;&gt;Documentable::DocPage</title>
<path fill="none" stroke="#000000" d="M1135.01,-30.62C1172.8,-33.61 1203.04,-36 1203.04,-36 1203.04,-36 1691.39,-67.26 1918,-81.76"/>
<polygon fill="#000000" stroke="#000000" points="1918.06,-85.28 1928.26,-82.42 1918.5,-78.29 1918.06,-85.28"/>
</g>
<!-- Documentable::DocPage::Primary::Programs -->
<g id="node5" class="node">
<title>Documentable::DocPage::Primary::Programs</title>
<g id="a_node5"><a xlink:href="/type/Documentable::DocPage::Primary::Programs" xlink:title="Documentable::DocPage::Primary::Programs">
<ellipse fill="none" stroke="#000000" cx="1418.04" cy="-18" rx="206.06" ry="18"/>
<text text-anchor="middle" x="1418.04" y="-14.3" font-family="FreeSans" font-size="14.00" fill="#000000">Documentable::DocPage::Primary::Programs</text>
</a>
</g>
</g>
<!-- Documentable::DocPage::Primary::Programs&#45;&gt;Documentable::DocPage -->
<g id="edge4" class="edge">
<title>Documentable::DocPage::Primary::Programs&#45;&gt;Documentable::DocPage</title>
<path fill="none" stroke="#000000" d="M1537.68,-32.66C1652.61,-45.79 1824.23,-65.38 1931.79,-77.67"/>
<polygon fill="#000000" stroke="#000000" points="1931.66,-81.17 1941.99,-78.83 1932.45,-74.22 1931.66,-81.17"/>
</g>
<!-- Documentable::DocPage::Index::Routine -->
<g id="node6" class="node">
<title>Documentable::DocPage::Index::Routine</title>
<g id="a_node6"><a xlink:href="/type/Documentable::DocPage::Index::Routine" xlink:title="Documentable::DocPage::Index::Routine">
<ellipse fill="none" stroke="#000000" cx="1833.04" cy="-18" rx="191.17" ry="18"/>
<text text-anchor="middle" x="1833.04" y="-14.3" font-family="FreeSans" font-size="14.00" fill="#000000">Documentable::DocPage::Index::Routine</text>
</a>
</g>
</g>
<!-- Documentable::DocPage::Index::Routine&#45;&gt;Documentable::DocPage -->
<g id="edge5" class="edge">
<title>Documentable::DocPage::Index::Routine&#45;&gt;Documentable::DocPage</title>
<path fill="none" stroke="#000000" d="M1879.71,-35.5C1908.9,-45.82 1946.62,-59.16 1977.1,-69.93"/>
<polygon fill="#000000" stroke="#000000" points="1976.12,-73.3 1986.72,-73.33 1978.45,-66.7 1976.12,-73.3"/>
</g>
<!-- Documentable::DocPage::Primary::Type -->
<g id="node7" class="node">
<title>Documentable::DocPage::Primary::Type</title>
<g id="a_node7"><a xlink:href="/type/Documentable::DocPage::Primary::Type" xlink:title="Documentable::DocPage::Primary::Type">
<ellipse fill="none" stroke="#000000" cx="2229.04" cy="-18" rx="186.57" ry="18"/>
<text text-anchor="middle" x="2229.04" y="-14.3" font-family="FreeSans" font-size="14.00" fill="#000000">Documentable::DocPage::Primary::Type</text>
</a>
</g>
</g>
<!-- Documentable::DocPage::Primary::Type&#45;&gt;Documentable::DocPage -->
<g id="edge6" class="edge">
<title>Documentable::DocPage::Primary::Type&#45;&gt;Documentable::DocPage</title>
<path fill="none" stroke="#000000" d="M2182.36,-35.5C2153.17,-45.82 2115.45,-59.16 2084.98,-69.93"/>
<polygon fill="#000000" stroke="#000000" points="2083.62,-66.7 2075.36,-73.33 2085.95,-73.3 2083.62,-66.7"/>
</g>
<!-- Documentable::DocPage::SubIndex::Type -->
<g id="node8" class="node">
<title>Documentable::DocPage::SubIndex::Type</title>
<g id="a_node8"><a xlink:href="/type/Documentable::DocPage::SubIndex::Type" xlink:title="Documentable::DocPage::SubIndex::Type">
<ellipse fill="none" stroke="#000000" cx="2625.04" cy="-18" rx="191.17" ry="18"/>
<text text-anchor="middle" x="2625.04" y="-14.3" font-family="FreeSans" font-size="14.00" fill="#000000">Documentable::DocPage::SubIndex::Type</text>
</a>
</g>
</g>
<!-- Documentable::DocPage::SubIndex::Type&#45;&gt;Documentable::DocPage -->
<g id="edge7" class="edge">
<title>Documentable::DocPage::SubIndex::Type&#45;&gt;Documentable::DocPage</title>
<path fill="none" stroke="#000000" d="M2510.86,-32.46C2400.18,-45.5 2234.08,-65.07 2129.19,-77.43"/>
<polygon fill="#000000" stroke="#000000" points="2128.75,-73.96 2119.23,-78.61 2129.57,-80.91 2128.75,-73.96"/>
</g>
<!-- Documentable::DocPage::Index::Language -->
<g id="node9" class="node">
<title>Documentable::DocPage::Index::Language</title>
<g id="a_node9"><a xlink:href="/type/Documentable::DocPage::Index::Language" xlink:title="Documentable::DocPage::Index::Language">
<ellipse fill="none" stroke="#000000" cx="3030.04" cy="-18" rx="196.07" ry="18"/>
<text text-anchor="middle" x="3030.04" y="-14.3" font-family="FreeSans" font-size="14.00" fill="#000000">Documentable::DocPage::Index::Language</text>
</a>
</g>
</g>
<!-- Documentable::DocPage::Index::Language&#45;&gt;Documentable::DocPage -->
<g id="edge8" class="edge">
<title>Documentable::DocPage::Index::Language&#45;&gt;Documentable::DocPage</title>
<path fill="none" stroke="#000000" d="M2889.9,-30.62C2853.86,-33.61 2825.04,-36 2825.04,-36 2825.04,-36 2362.46,-66.88 2143.45,-81.5"/>
<polygon fill="#000000" stroke="#000000" points="2142.96,-78.02 2133.21,-82.18 2143.42,-85.01 2142.96,-78.02"/>
</g>
<!-- Documentable::DocPage::Index::Type -->
<g id="node10" class="node">
<title>Documentable::DocPage::Index::Type</title>
<g id="a_node10"><a xlink:href="/type/Documentable::DocPage::Index::Type" xlink:title="Documentable::DocPage::Index::Type">
<ellipse fill="none" stroke="#000000" cx="3421.04" cy="-18" rx="176.57" ry="18"/>
<text text-anchor="middle" x="3421.04" y="-14.3" font-family="FreeSans" font-size="14.00" fill="#000000">Documentable::DocPage::Index::Type</text>
</a>
</g>
</g>
<!-- Documentable::DocPage::Index::Type&#45;&gt;Documentable::DocPage -->
<g id="edge9" class="edge">
<title>Documentable::DocPage::Index::Type&#45;&gt;Documentable::DocPage</title>
<path fill="none" stroke="#000000" d="M3294.4,-30.57C3261.46,-33.58 3235.04,-36 3235.04,-36 3235.04,-36 2451.41,-70.5 2148.54,-83.83"/>
<polygon fill="#000000" stroke="#000000" points="2148.25,-80.34 2138.41,-84.27 2148.56,-87.33 2148.25,-80.34"/>
</g>
<!-- Documentable::DocPage::Index::Programs -->
<g id="node11" class="node">
<title>Documentable::DocPage::Index::Programs</title>
<g id="a_node11"><a xlink:href="/type/Documentable::DocPage::Index::Programs" xlink:title="Documentable::DocPage::Index::Programs">
<ellipse fill="none" stroke="#000000" cx="3812.04" cy="-18" rx="196.07" ry="18"/>
<text text-anchor="middle" x="3812.04" y="-14.3" font-family="FreeSans" font-size="14.00" fill="#000000">Documentable::DocPage::Index::Programs</text>
</a>
</g>
</g>
<!-- Documentable::DocPage::Index::Programs&#45;&gt;Documentable::DocPage -->
<g id="edge10" class="edge">
<title>Documentable::DocPage::Index::Programs&#45;&gt;Documentable::DocPage</title>
<path fill="none" stroke="#000000" d="M3671.9,-30.62C3635.86,-33.61 3607.04,-36 3607.04,-36 3607.04,-36 2517.86,-72.63 2150.42,-84.99"/>
<polygon fill="#000000" stroke="#000000" points="2150.17,-81.49 2140.29,-85.33 2150.41,-88.49 2150.17,-81.49"/>
</g>
</g>
</svg>
